<?xml version="1.0" encoding="UTF-8"?>
<svg id="Layer_1" data-name="Layer 1" xmlns="http://www.w3.org/2000/svg" version="1.1" viewBox="0 0 16 16">
  <defs>
    <style>
      .cls-1 {
        fill: #f7f7f7;
        stroke-width: 0px;
      }
    </style>
  </defs>
  <path class="cls-1" d="M11,6.6c0-.6-.4-1-1-1,0,0-.2,0-.2,0l-1,.2c-.4.1-.8.5-.8,1v4.3c-.3-.1-.7-.2-1-.2-.5,0-1,.1-1.3.4-.4.2-.7.6-.7,1.1s.3.9.7,1.1c.4.2.8.4,1.3.4s1-.1,1.3-.4c.4-.2.7-.6.7-1.1v-3.6l2-.5v-1.8Z"/>
  <path class="cls-1" d="M14,14V4.5L9.5,0h-5.5C2.9,0,2,.9,2,2v12c0,1.1.9,2,2,2h8c1.1,0,2-.9,2-2M9.5,3c0,.8.7,1.5,1.5,1.5h2v9.5c0,.6-.4,1-1,1H4c-.6,0-1-.4-1-1V2c0-.6.4-1,1-1h5.5v2Z"/>
</svg>