<?xml version="1.0" encoding="UTF-8"?>
<svg id="Layer_1" data-name="Layer 1" xmlns="http://www.w3.org/2000/svg" version="1.1" viewBox="0 0 16 16">
  <defs>
    <style>
      .cls-1 {
        fill: #f7f7f7;
        stroke-width: 0px;
      }
    </style>
  </defs>
  <path class="cls-1" d="M6.5,7c.8,0,1.5-.7,1.5-1.5s-.7-1.5-1.5-1.5-1.5.7-1.5,1.5.7,1.5,1.5,1.5"/>
  <path class="cls-1" d="M14,14c0,1.1-.9,2-2,2H4c-1.1,0-2-.9-2-2V2C2,.9,2.9,0,4,0h5.5l4.5,4.5v9.5ZM4,1c-.6,0-1,.4-1,1v10l2.2-2.2c.2-.2.4-.2.6,0l2.2,1.3,2.2-3c.2-.2.5-.3.7-.1,0,0,0,0,0,0l2.1,2.1v-5.5h-2c-.8,0-1.5-.7-1.5-1.5V1h-5.5Z"/>
</svg>