<?xml version="1.0" encoding="UTF-8"?>
<svg id="Layer_1" data-name="Layer 1" xmlns="http://www.w3.org/2000/svg" version="1.1" viewBox="0 0 40.9 20.4">
  <defs>
    <style>
      .cls-1 {
        fill: #333;
      }

      .cls-1, .cls-2, .cls-3 {
        stroke-width: 0px;
      }

      .cls-2 {
        fill: #595959;
      }

      .cls-3 {
        fill: #cee5e8;
      }
    </style>
  </defs>
  <rect class="cls-1" width="40.9" height="20.4"/>
  <g>
    <path class="cls-3" d="M6.7,11.2c.8,0,1.5-.7,1.5-1.5s-.7-1.5-1.5-1.5-1.5.7-1.5,1.5.7,1.5,1.5,1.5"/>
    <path class="cls-3" d="M16.2,15.2c0,1.1-.9,2-2,2H4.2c-1.1,0-2-.9-2-2v-8c0-1.1.9-2,2-2,0-1.1.9-2,2-2h10c1.1,0,2,.9,2,2v8c0,1.1-.9,2-2,2M16.2,4.2H6.2c-.6,0-1,.4-1,1h9c1.1,0,2,.9,2,2v7c.6,0,1-.4,1-1v-8c0-.6-.4-1-1-1M4.2,6.2c-.6,0-1,.4-1,1v8l2.6-2.4c.2-.2.4-.2.6,0l2.7,1.8,3.7-3.7c.2-.2.4-.2.6,0l1.8,1.9v-5.5c0-.6-.4-1-1-1H4.2Z"/>
  </g>
  <g>
    <path class="cls-2" d="M27.2,11.2c.8,0,1.5-.7,1.5-1.5s-.7-1.5-1.5-1.5-1.5.7-1.5,1.5.7,1.5,1.5,1.5"/>
    <path class="cls-2" d="M36.7,15.2c0,1.1-.9,2-2,2h-10c-1.1,0-2-.9-2-2V7.2c0-1.1.9-2,2-2,0-1.1.9-2,2-2h10c1.1,0,2,.9,2,2v8c0,1.1-.9,2-2,2M36.7,4.2h-10c-.6,0-1,.4-1,1h9c1.1,0,2,.9,2,2v7c.6,0,1-.4,1-1V5.2c0-.6-.4-1-1-1M24.7,6.2c-.6,0-1,.4-1,1v8l2.6-2.4c.2-.2.4-.2.6,0l2.7,1.8,3.7-3.7c.2-.2.4-.2.6,0l1.8,1.9v-5.5c0-.6-.4-1-1-1h-10Z"/>
  </g>
</svg>